# xmcd
#
# Track frame offsets:
#	150
#	14512
#	24448
#	41068
#	53917
#	67753
#	78409
#	95103
#	107087
#	116756
#	124932
#	141383
#	151037
#	167751
#	182183
#	191428
#	202405
#	214110
#
# Disc length: 3001 seconds
#
# Revision: 0
# Processed by: cddbd v1.5.2PL0 Copyright (c) Steve Scherf et al.
# Submitted via: EZCDAudioConverter 1.3.4.1
#
DISCID=060bb712
DTITLE=Hendrickson Road House - Hendrickson Road House (1970)
DYEAR=1900
DGENRE=
TTITLE0=Forget About You
TTITLE1=Theatre King
TTITLE2=Things I Never Had
TTITLE3=Everybody's Told You
TTITLE4=Sunny Day Rain
TTITLE5=Classical Misconceptions (Part 1 and 2)
TTITLE6=Tomorrow Your Sorrow
TTITLE7=Helping Hand
TTITLE8=That's All There Ever Was
TTITLE9=I Wondered If You Knew
TTITLE10=Yesircantoo
TTITLE11=The Seeds That Grows
TTITLE12=Tomorrow Your Sorrow (aka Extension II) [Single Mix]
TTITLE13=Forget About You [Single Mix]
TTITLE14=Back To Time
TTITLE15=Four And Twenty Blackbirds
TTITLE16=Beachcomber
TTITLE17=Can't Deny It
EXTD=
EXTT0=
EXTT1=
EXTT2=
EXTT3=
EXTT4=
EXTT5=
EXTT6=
EXTT7=
EXTT8=
EXTT9=
EXTT10=
EXTT11=
EXTT12=
EXTT13=
EXTT14=
EXTT15=
EXTT16=
EXTT17=
PLAYORDER=
